<svg viewBox="0 0 1399.63 3278.6" xmlns="http://www.w3.org/2000/svg" xmlns:xlink="http://www.w3.org/1999/xlink"><clipPath id="a"><path d="m457.41 4587.22h320v2160.52h-320z"/></clipPath><clipPath id="b"><path d="m-825.59 2620.22h1400v2051h-1400z"/></clipPath><clipPath id="c"><path d="m-1418.79 3.28h1397.01v3273.98h-1397.01z"/></clipPath><clipPath id="d"><path d="m-1.79 3.28h1397.01v3273.98h-1397.01z"/></clipPath><g clip-path="url(#a)"><g clip-path="url(#b)"><path d="m-386.69 2740.02 398.6 398.7" fill="none" stroke="#30cfc9" stroke-dasharray="20 5.54" stroke-miterlimit="10" stroke-width="3"/><circle cx="294.51" cy="3127.62" fill="#203131" r="32.7" stroke="#30cfc9" stroke-dasharray="5.41 5.41" stroke-miterlimit="10" stroke-width="3"/><circle cx="294.51" cy="3127.62" fill="#ffa47a" r="11.1"/><circle cx="294.51" cy="3127.62" opacity=".8" r="20.4" stroke="#30cfc9" stroke-dasharray="5.34 5.34" stroke-miterlimit="10" stroke-width="3"/></g></g><g clip-path="url(#c)"><path d="m215.32-278.8a859.26 859.26 0 0 0 -41.42-171.43c-15.06-42.21-33.92-83-62.26-110.36s-67.56-39.41-102.48-21.06c-45 23.75-76.64 92.7-123.94 98.79-16.16 2.09-31.83-4-46.9-10q-53.88-21.26-107.87-42.61c-41.21-16.26-84.22-32.73-128.32-23.25s-89.31 53.29-95.8 111.36c-5.18 47.5 12.08 106.08-17.66 136.21-13 13.07-30 13.87-45.7 14q-74.38.6-148.88 1.3c-28.64.3-58.38.8-85 17.46s-49.29 54.38-45 91.21c5.79 49 50.19 65 86.71 75.83s79.33 40.32 73 90.51c-6.19 48.49-54.89 73.34-66.26 120.74-8 33.23 6.18 68.15 27.44 85.22s48.1 19.76 73.94 18.76c27.24-1.1 55.68-5.59 80.33 6.88s43.6 49.8 32.13 83.52c-9.68 28.44-38.12 50.5-33.23 79.43 3.39 20.16 21.35 27.15 36.82 31.14l149.18 38.31c13.07 3.4 27.24 7.69 34.53 22 10.38 20.45 1.3 49.39.3 75-2.7 68.15 51.19 107 97.79 131.51 32.73 17.17 68.25 34.73 104.08 22.66 34.92-11.68 62.56-48.8 93.69-74.44 74.64-61.27 168.14-53.39 245.68-16.27s144.78 100.08 218.96 146.48c87.51 54.68 184.5 85.81 284 91.3 28.84 1.6 66.06-6.19 76.14-43.21 11.17-41-22.65-76.13-21.86-118.54 1.1-54.78 53.89-82.63 95.5-89.91s93.5-20.46 107.17-73.64c12.07-46.8-17-90.61-48.5-111.86-33.92-22.85-72.84-32.63-107.17-54.78s-65.26-62.37-65.16-114.36c0-82.12 75.54-153.27 64.36-232.9-6.59-47.2-41.66-74.44-74.95-92.2a474.9 474.9 0 0 0 -136.6-48.2c-33.73-6.29-70.45-10.18-94.4-40.21-17-21.26-24.45-52.29-32.63-81.73-13.07-47.4-29.74-94.7-59-126.13s-73.82-43.41-109.08-16.36c-40.51 31-60.07 104.17-104.38 121.54" fill="#c5fdf9"/><path d="m504.3 1448.05c87.81-16.39 170.73-84.47 227.71-186.7 12.77-23 24.84-50 24.45-80-1.1-93.91-110.17-115.2-113.66-209-1.1-29.14 9.28-56.58 10.18-85.83 2.49-82.43-67.36-125.68-121.44-116s-108.67 46.48-160.96 23.18c-71.94-32.11-112-167.34-186.2-184-24.55-5.46-51.79 2.5-72.74-17.76-31.73-30.63-27.64-100.75-38-155.4-13.07-69-54.19-120.33-99.39-141.84s-94-17-140.4-3.64c-22.45 6.48-50.79 11.38-63.26-17.77-6-14-6-31.87-10.28-47.13-15.07-53.05-65.66-44.17-102.08-28.34s-89.21 15.82-98-40.42c-5.23-33.21 10.37-68.4 3.68-101.06-4.29-21.17-17-35.63-29.54-47.13-54.78-50.21-121.37-69.78-184.3-54.41-74.44 18.2-162.85 76.95-215.94-4.8-12.77-19.7-21.15-45.43-34.52-64.1-52.89-73.88-134.32 1.37-205.26 16.74-42.31 9.11-85.12-5.13-127.63-13.21s-88.11-8.76-124.83 24-59 109.63-36.92 165.3c6.18 15.6 15.56 29.83 16 47.93.7 32.21-25.34 47.47-46.2 53.27-138.2 38.82-280 71.5-404.63 169.4-19 14.91-39.62 36.2-41 68.53-.9 20.38 6.28 39.39 9.77 59.2 16.07 90.27-44.7 166.32-99.58 208.21s-120.44 95.41-123.54 188.53c-2.39 71 34.73 130.8 73.05 172.13 71.84 77.53 158 124.32 245.77 133.31 73.94 7.63 160.16-3.76 209.25 80.71 57.88 99.73 21.26 261 57.88 381.6 45.5 149.58 180.61 174 286.28 138.2s211.25-110.08 317.72-78c102 30.85 192.89 157.33 295.57 134.22 88.21-19.92 154.67-147.2 243.68-157.9 75.14-9 143.09 67.85 217.43 88 158.06 42.81 310.74-174.4 467.6-121.36 33.53 11.39 65.06 34.84 98.79 44.63s72.84 3 95.19-36.54c35.13-62.27 9-157.44-18.26-228.71" fill="#e3eae8"/><path d="m537.23 2941.61c87.81-15.72 170.73-81 227.71-179 12.77-22 24.84-47.92 24.44-76.74-1.09-90.16-110.16-110.46-113.65-200.4-1.1-27.94 9.28-54.25 10.18-82.3 2.49-79-67.36-120.5-121.44-111.23s-108.67 44.65-161 22.27c-71.94-30.78-112-160.46-186.2-176.39-24.55-5.24-51.79 2.4-72.74-17-31.74-29.36-27.64-96.6-38-149-13.07-66.15-54.19-115.37-99.39-136s-94-16.26-140.4-3.49c-22.45 6.22-50.79 10.92-63.26-17-6-13.42-6-30.56-10.28-45.19-15.07-50.86-65.66-42.35-102.08-27.18s-89.21 15.17-98-38.74c-5.19-31.88 10.38-65.61 3.69-96.93-4.29-20.3-17-34.17-29.54-45.19-54.78-48.14-121.34-66.91-184.3-52.18-74.44 17.47-162.85 73.79-215.94-4.58-12.77-18.88-21.15-43.55-34.52-61.45-52.89-70.84-134.32 1.31-205.26 16-42.31 8.74-85.12-4.91-127.63-12.66s-88.11-8.4-124.83 23-59 105.12-36.92 158.49c6.18 15 15.56 28.6 16 46 .7 30.89-25.34 45.52-46.2 51.09-138.2 37.22-280 68.55-404.63 162.42-19 14.3-39.62 34.71-41 65.71-.89 19.53 6.29 37.76 9.78 56.76 16.07 86.55-44.7 159.47-99.58 199.64s-120.34 91.25-123.44 180.64c-2.39 68.11 34.73 125.42 73 165 71.84 74.33 158 119.2 245.77 127.82 73.94 7.31 160.16-3.6 209.25 77.39 57.88 95.61 21.25 250.28 57.88 365.87 45.5 143.43 180.61 166.79 286.28 132.52s211.27-105.58 317.74-74.78c102 29.58 192.89 150.84 295.57 128.69 88.21-19.1 154.67-141.14 243.68-151.4 75.14-8.62 143.09 65.06 217.43 84.38 158.06 41 310.73-167.22 467.6-116.36 33.53 10.92 65.06 33.4 98.79 42.79s72.84 2.84 95.19-35c35.13-59.7 9-151-18.26-219.29" fill="#e3eae8"/><path d="m517.69 3017.34a858.42 858.42 0 0 0 -1.33-176.34c-5.07-44.53-14.15-88.56-35.52-121.63s-56.85-53.65-94.93-43.7c-49.23 12.89-95.72 72.84-143.16 68-16.22-1.64-30.09-11.13-43.4-20.39q-47.64-33-95.35-66c-36.43-25.21-74.57-51-119.67-51.83s-99.09 31.57-118.62 86.65c-15.86 45.07-12.37 106-48.18 128.62-15.61 9.78-32.41 6.67-47.68 3.21q-72.59-16.35-145.28-32.61c-27.95-6.22-57-12.5-86.76-2.33s-60.37 41.74-64.57 78.57c-5.51 49 34.1 74.68 67.19 93.58s68.08 57.3 50.44 104.72c-17.05 45.82-70.13 58.94-92 102.51-15.34 30.54-9.48 67.77 7.33 89.22s42.34 30.18 67.74 35.09c26.77 5.13 55.49 7.23 76.65 25s31.14 58.41 12.29 88.64c-15.89 25.49-48.6 40.5-50.43 69.79-1.28 20.4 14.62 31.29 28.78 38.69l136.57 71.2c12 6.28 24.78 13.68 28.63 29.23 5.45 22.28-10 48.4-16.78 73.14-18.13 65.76 25.51 115.81 65.31 150.32 28 24.16 58.56 49.34 96.19 45.73 36.67-3.42 72-33.28 108.18-51.17 86.62-42.69 175.87-13.74 242.93 40.05s118.32 130.42 180 192.47c72.74 73.14 160.11 125.52 255.74 153.5 27.72 8.12 65.73 9 84-24.75 20.21-37.4-4.74-79.3 5.69-120.41 13.53-53.1 71.27-68.2 113.44-65.83s95.7 1.35 121.12-47.33c22.4-42.83 4.09-92.09-21.78-120-27.84-30-63.51-48.35-91.9-77.73s-49.36-75.57-37.44-126.18c18.68-80 108.43-132.07 115.66-212.15 4.32-47.46-23.59-81.95-52-106.83a475 475 0 0 0 -122.07-78c-31.41-13.8-66.28-25.94-82.77-60.64-11.68-24.55-11.91-56.47-13.18-87-2-49.13-7.42-99-28.74-136.24s-62-59.07-102.48-40.75c-46.51 21-82.2 87.78-129.29 94.61" fill="#c5fdf9"/><path d="m528.64 1211a858.55 858.55 0 0 0 -41.41-171.43c-15.07-42.21-33.92-83-62.26-110.37s-67.56-39.31-102.38-21c-45 23.75-76.64 92.7-123.94 98.79-16.16 2.09-31.83-4-46.9-10q-53.88-21.17-107.87-42.53c-41.21-16.27-84.22-32.73-128.32-23.25s-89.31 53.28-95.8 111.36c-5.19 47.5 12.08 106.07-17.66 136.21-13 13.07-30 13.87-45.7 14q-74.4.6-148.88 1.3c-28.64.29-58.38.79-85 17.46s-49.29 54.38-45 91.2c5.78 49 50.19 65 86.71 75.84s79.33 40.31 72.94 90.51c-6.18 48.49-54.88 73.34-66.25 120.74-8 33.23 6.18 68.15 27.44 85.21s48.09 19.76 73.94 18.76c27.24-1.09 55.68-5.58 80.33 6.89s43.6 49.79 32.13 83.52c-9.68 28.44-38.12 50.49-33.23 79.43 3.39 20.16 21.35 27.14 36.82 31.13q74.54 19.17 149.18 38.32c13.07 3.39 27.24 7.69 34.53 22 10.37 20.46 1.29 49.4.3 75-2.7 68.16 51.19 107 97.79 131.52 32.73 17.17 68.25 34.73 104.07 22.65 34.93-11.67 62.57-48.79 93.7-74.44 74.64-61.27 168.14-53.38 245.68-16.26s144.89 100.08 219 146.48c87.51 54.69 184.5 85.82 284 91.31 28.84 1.59 66.06-6.19 76.14-43.21 11.17-41-22.66-76.14-21.86-118.55 1.1-54.78 53.89-82.62 95.5-89.9s93.5-20.46 107.17-73.64c12.07-46.8-17-90.61-48.5-111.87-33.93-22.85-72.84-32.63-107.17-54.78s-65.26-62.4-65.16-114.4c0-82.13 75.54-153.27 64.36-232.9-6.58-47.2-41.61-74.44-74.94-92.21a474.88 474.88 0 0 0 -136.6-48.19c-33.73-6.29-70.45-10.18-94.4-40.22-17-21.25-24.45-52.28-32.63-81.72-13.07-47.4-29.74-94.7-59-126.13s-73.84-43.41-109.06-16.37c-40.51 31-60.07 104.18-104.38 121.54" fill="#f9f9f7"/></g><path d="m-1.79 3.28h1400v3273.98h-1400z" fill="#e3eae8"/><g clip-path="url(#d)"><path d="m1632.32-278.8a859.26 859.26 0 0 0 -41.42-171.43c-15.06-42.21-33.92-83-62.26-110.36s-67.56-39.42-102.48-21.06c-45 23.75-76.64 92.7-123.94 98.79-16.16 2.09-31.83-4-46.9-10q-53.88-21.26-107.87-42.61c-41.21-16.26-84.22-32.73-128.32-23.25s-89.31 53.29-95.8 111.36c-5.18 47.5 12.08 106.08-17.66 136.21-13 13.07-30 13.87-45.7 14q-74.38.6-148.88 1.3c-28.64.3-58.38.8-85 17.46s-49.29 54.38-45 91.21c5.79 49 50.19 65 86.71 75.83s79.33 40.32 73 90.51c-6.19 48.49-54.89 73.34-66.26 120.74-8 33.23 6.18 68.15 27.44 85.22s48.1 19.76 73.94 18.76c27.24-1.1 55.68-5.59 80.33 6.88s43.6 49.8 32.13 83.52c-9.68 28.44-38.12 50.5-33.23 79.43 3.39 20.16 21.35 27.15 36.82 31.14l149.18 38.31c13.07 3.4 27.24 7.69 34.53 22 10.38 20.45 1.3 49.39.3 75-2.7 68.15 51.19 107 97.79 131.51 32.73 17.17 68.25 34.73 104.08 22.66 34.92-11.68 62.56-48.8 93.69-74.44 74.64-61.27 168.14-53.39 245.68-16.27s144.78 100.08 218.96 146.48c87.51 54.68 184.5 85.81 284 91.3 28.84 1.6 66.06-6.19 76.14-43.21 11.17-41-22.65-76.13-21.86-118.54 1.1-54.78 53.89-82.63 95.5-89.91s93.5-20.46 107.17-73.64c12.07-46.8-17-90.61-48.5-111.86-33.92-22.85-72.84-32.63-107.17-54.78s-65.26-62.37-65.16-114.36c0-82.12 75.54-153.27 64.36-232.9-6.59-47.2-41.66-74.44-74.95-92.2a474.9 474.9 0 0 0 -136.6-48.2c-33.73-6.29-70.45-10.18-94.4-40.21-17-21.26-24.45-52.29-32.63-81.73-13.07-47.4-29.74-94.7-59-126.13s-73.85-43.41-109.07-16.36c-40.51 31-60.07 104.17-104.38 121.54" fill="#d5d5cf"/><path d="m1921.3 1448.05c87.81-16.39 170.73-84.47 227.71-186.7 12.77-23 24.84-50 24.45-80-1.1-93.91-110.17-115.2-113.66-209-1.1-29.14 9.28-56.58 10.18-85.83 2.49-82.43-67.36-125.68-121.44-116s-108.67 46.56-161 23.23c-71.94-32.11-112-167.34-186.2-184-24.55-5.46-51.79 2.5-72.74-17.76-31.73-30.63-27.64-100.75-38-155.4-13.07-69-54.19-120.33-99.39-141.84s-94-17-140.4-3.64c-22.45 6.48-50.79 11.38-63.26-17.77-6-14-6-31.87-10.28-47.13-15.07-53.05-65.66-44.17-102.08-28.34s-89.21 15.82-98-40.42c-5.19-33.26 10.41-68.45 3.72-101.11-4.29-21.17-17-35.63-29.54-47.13-54.78-50.21-121.37-69.78-184.3-54.41-74.44 18.2-162.85 76.95-215.94-4.8-12.77-19.7-21.15-45.43-34.52-64.1-52.89-73.9-134.32 1.39-205.26 16.76-42.31 9.11-85.12-5.13-127.63-13.21s-88.11-8.76-124.83 24-58.98 109.65-36.89 165.32c6.18 15.6 15.56 29.83 16 47.93.7 32.21-25.34 47.47-46.2 53.27-138.2 38.82-280 71.5-404.63 169.4-19 14.91-39.62 36.2-41 68.53-.9 20.38 6.28 39.39 9.77 59.2 16.07 90.27-44.7 166.32-99.58 208.21s-120.44 95.41-123.54 188.53c-2.39 71 34.73 130.8 73 172.13 71.84 77.53 158 124.32 245.77 133.31 73.94 7.63 160.16-3.76 209.25 80.71 57.88 99.73 21.26 261 57.88 381.6 45.5 149.58 180.61 174 286.28 138.2s211.25-110.08 317.72-78c102 30.85 192.89 157.33 295.57 134.22 88.21-19.92 154.67-147.2 243.68-157.9 75.14-9 143.09 67.85 217.43 88 158.06 42.81 310.74-174.4 467.6-121.36 33.53 11.39 65.06 34.84 98.79 44.63s72.84 3 95.19-36.54c35.13-62.27 9-157.44-18.26-228.71" fill="#e3eae8"/><path d="m1954.23 2941.61c87.81-15.72 170.73-81 227.71-179 12.77-22 24.84-47.92 24.44-76.74-1.09-90.16-110.16-110.46-113.65-200.4-1.1-27.94 9.28-54.25 10.18-82.3 2.49-79-67.36-120.5-121.44-111.23s-108.67 44.65-161 22.27c-71.94-30.78-112-160.46-186.2-176.39-24.55-5.24-51.79 2.4-72.74-17-31.74-29.36-27.64-96.6-38-149-13.07-66.15-54.19-115.37-99.39-136s-94-16.26-140.4-3.49c-22.45 6.22-50.79 10.92-63.26-17-6-13.42-6-30.56-10.28-45.19-15.07-50.86-65.66-42.35-102.08-27.18s-89.21 15.17-98-38.74c-5.19-31.88 10.38-65.61 3.69-96.93-4.29-20.3-17-34.17-29.54-45.19-54.78-48.14-121.34-66.91-184.3-52.18-74.44 17.47-162.85 73.79-215.94-4.58-12.77-18.88-21.15-43.55-34.52-61.45-52.89-70.84-134.32 1.31-205.26 16-42.31 8.74-85.12-4.91-127.63-12.66s-88.11-8.4-124.83 23-59 105.12-36.92 158.49c6.18 15 15.56 28.6 16 46 .7 30.89-25.34 45.52-46.2 51.09-138.2 37.22-280 68.55-404.63 162.42-19 14.3-39.62 34.71-41 65.71-.89 19.53 6.29 37.76 9.78 56.76 16.07 86.55-44.7 159.47-99.58 199.64s-120.34 91.25-123.44 180.64c-2.39 68.11 34.73 125.42 73.05 165 71.84 74.33 158 119.2 245.77 127.82 73.94 7.31 160.16-3.6 209.25 77.39 57.88 95.61 21.25 250.28 57.88 365.87 45.5 143.43 180.61 166.79 286.28 132.52s211.22-105.58 317.69-74.78c102 29.58 192.89 150.84 295.57 128.69 88.21-19.1 154.67-141.14 243.68-151.4 75.14-8.62 143.09 65.06 217.43 84.38 158.06 41 310.73-167.22 467.6-116.36 33.53 10.92 65.06 33.4 98.79 42.79s72.84 2.84 95.19-35c35.13-59.7 9-151-18.26-219.29" fill="#e3eae8"/><path d="m-14.66 1472.85c73.45-66 183.91-68.46 259.45-5.69 11 9.08 21.65 20.06 26.74 34.63 19 54-46.3 101.78-47 160.15-.6 50.79 45.21 81.93 82.72 107.67a558.21 558.21 0 0 1 76 62.87c11 10.77 22.55 26 18.16 42-1.89 7-6.78 12.37-11.87 16.66-27.14 22.75-63.37 21.26-95.6 31.33s-65.56 45.51-54.28 82.13c11.37 36.92 58.77 43.71 70.95 80.23 10.18 30.63-11.78 64.76-37.82 77.23s-55.28 10.58-83.12 15.17-58 19.36-68.16 50c-17.36 52.69 33.23 119.94 2.7 163.55-24.61 35.22-73.21 13.57-111.13 23.45-34.52 8.88-59.37 44.6-92.1 60.27-26.84 12.87-57 11.48-85.91 9.28-24.55-1.89-50-4.49-71.25-19-24.25-16.56-39.52-46.2-59.37-69.45-40.62-47.8-99.29-67.55-156.07-78.63s-115.35-15.47-168.94-40c-29.43-13.47-57.47-33.52-77-62.66s-29.74-68.15-22-104.18c15.76-74 91.8-102 137.4-156.46 7.38-8.88 14.17-18.86 17-30.84 6-25.44-7.58-51.19-21.85-71.64-28.94-41.61-63.26-77.64-93.2-118.35s-55.88-87.61-63.56-140.4 6.48-112.56 43.7-143.89c61-51.29 152.18-9.78 217.54-53.09 21.35-14.17 37.92-36.22 56.88-54.28s43.1-32.83 67.25-27.84c56.08 11.48 72.75 115.55 129.42 121.14 24.65 2.5 46.7-15.67 68.16-29.94s49.09-25.34 69.85-9.67c15.86 12 21.75 35.12 31.33 54.08s29.74 36 46.1 25.15" fill="#d5d5cf"/><path d="m402.54 3406.17c98.47 7 177 84.65 184.41 182.58 1.1 14.21.63 29.51-6.31 43.3-25.64 51.15-105.36 37.44-147.82 77.51-36.93 34.87-27.49 89.44-19.92 134.31a558.79 558.79 0 0 1 7.64 98.36c-.12 15.38-3.05 34.32-17.58 42.26-6.34 3.49-13.61 3.72-20.23 3-35.23-3.7-59.32-30.79-89-47s-78.28-15.51-96.77 18c-18.64 33.84 9.42 72.64-8.38 106.77-15 28.61-54.75 36.54-81.82 26.49s-46-32.4-68.67-49.23-54.21-28.23-83.31-14.25c-49.95 24.13-63.15 107.25-115.72 115.6-42.46 6.76-60.66-43.23-94.12-63.63-30.38-18.65-73.33-11.69-107.35-24.33-27.91-10.35-47.85-33-66.38-55.33-15.7-19-31.52-39.06-35.88-64.4-4.95-28.95 5.75-60.52 8.67-91 6.14-62.42-20.44-118.33-51.93-166.86s-69.05-93.68-88.64-149.27c-10.78-30.53-15.84-64.63-8.49-98.94s28.34-68.75 59.58-88.26c64.19-40.13 137.13-4.87 208-9.95 11.52-.86 23.41-2.92 34-9.23 22.46-13.38 31.54-41 36.33-65.51 9.81-49.73 11.85-99.44 20.32-149.26s24.15-101.07 56.77-143.28 85.43-73.57 133.83-68.58c79.23 8.36 112.77 102.79 189.34 119.68 25 5.51 52.39 2.09 78.56 3.17s53.56 8.18 66.76 29c30.72 48.29-32.53 132.61 2.84 177.24 15.34 19.46 43.72 22.69 68.9 28.2s52.34 17.69 55.5 43.5c2.42 19.73-10.14 40-17.11 60.11s-5.23 46.42 14 50.63" fill="#f9f9f7"/><path d="m-69.54-355.23c73.44-66 253.76-68.46 329.3-5.69 11 9.08 21.65 20.05 26.74 34.62 19 54-46.3 101.79-47 160.16-.6 50.79 45.2 81.92 82.72 107.67a558.87 558.87 0 0 1 76 62.86c11 10.78 22.55 26.05 18.16 42-1.9 7-6.78 12.38-11.87 16.67-27.11 22.76-63.33 21.26-95.51 31.34s-65.56 45.5-54.28 82.13c11.37 36.92 58.77 43.7 71 80.22 10.17 30.64-11.78 64.77-37.82 77.24s-55.29 10.58-83.13 15.17-58 19.35-68.15 50c-17.36 52.69 33.23 119.94 2.69 163.55-24.74 35.21-73.31 13.56-111.26 23.44-34.52 8.85-59.37 44.6-92.05 60.27-26.84 12.87-57 11.47-85.92 9.28-24.54-1.9-50-4.49-71.24-19-24.25-16.56-39.52-46.2-59.38-69.45-40.61-47.8-99.28-67.56-156.06-78.63s-115.35-15.47-168.94-40c-29.44-13.47-57.48-33.53-77-62.66s-29.74-68.16-22.06-104.18c15.77-74 91.81-102 137.41-156.46 7.38-8.89 14.17-18.86 17-30.84 6-25.44-7.58-51.19-21.85-71.64-28.94-41.62-63.27-77.64-93.2-118.35s-55.88-87.61-63.56-140.4 6.48-112.56 43.7-143.89c61-51.29 152.18-9.78 217.54-53.09 21.35-14.17 37.91-36.22 56.87-54.28s42.99-32.83 67.14-27.83c56.08 11.47 72.74 115.55 129.42 121.14 24.65 2.49 46.7-15.67 68.16-29.94s49.09-25.34 69.85-9.68c15.86 12 21.75 35.13 31.33 54.09s29.74 36 46.1 25.14" fill="#f9f9f7"/><path d="m1934.69 3017.34a858.42 858.42 0 0 0 -1.33-176.36c-5.07-44.53-14.15-88.56-35.52-121.63s-56.85-53.65-94.93-43.7c-49.23 12.89-95.72 72.84-143.16 68-16.22-1.64-30.09-11.13-43.4-20.39q-47.64-33-95.35-66c-36.43-25.21-74.57-51-119.67-51.83s-99.09 31.57-118.62 86.65c-15.86 45.07-12.37 106-48.18 128.62-15.61 9.78-32.41 6.67-47.68 3.21q-72.58-16.35-145.28-32.61c-27.95-6.22-57-12.5-86.76-2.33s-60.37 41.74-64.57 78.57c-5.51 49 34.1 74.68 67.19 93.58s68.08 57.3 50.44 104.72c-17 45.82-70.13 58.94-92 102.51-15.34 30.54-9.48 67.77 7.33 89.22s42.34 30.18 67.74 35.09c26.77 5.13 55.49 7.23 76.65 25s31.14 58.41 12.29 88.64c-15.89 25.49-48.6 40.5-50.43 69.79-1.28 20.4 14.62 31.29 28.78 38.69l136.57 71.22c12 6.28 24.78 13.68 28.63 29.23 5.45 22.28-10 48.4-16.78 73.14-18.13 65.76 25.51 115.81 65.31 150.32 28 24.16 58.56 49.34 96.19 45.73 36.67-3.42 72-33.28 108.18-51.17 86.62-42.69 175.87-13.74 242.93 40.05s118.32 130.42 180 192.47c72.77 73.15 160.14 125.53 255.77 153.51 27.72 8.12 65.73 9 84-24.75 20.21-37.4-4.74-79.3 5.69-120.41 13.53-53.1 71.27-68.2 113.44-65.83s95.7 1.35 121.12-47.33c22.4-42.83 4.09-92.09-21.78-120-27.84-30-63.51-48.35-91.9-77.73s-49.36-75.57-37.44-126.18c18.68-80 108.43-132.07 115.66-212.15 4.32-47.46-23.59-81.95-52-106.83a475 475 0 0 0 -122.07-78c-31.41-13.8-66.28-25.94-82.77-60.64-11.68-24.55-11.91-56.47-13.18-87-1.95-49.13-7.42-99-28.74-136.24s-62-59.07-102.48-40.75c-46.51 21-82.2 87.78-129.29 94.61" fill="#d5d5cf"/><path d="m1945.64 1211a858.55 858.55 0 0 0 -41.41-171.43c-15.07-42.21-33.92-83-62.26-110.37s-67.56-39.31-102.38-21c-45 23.75-76.64 92.7-123.94 98.79-16.16 2.09-31.83-4-46.9-10q-53.88-21.26-107.87-42.61c-41.21-16.27-84.22-32.73-128.32-23.25s-89.31 53.28-95.8 111.36c-5.19 47.5 12.08 106.07-17.66 136.21-13 13.07-30 13.87-45.7 14q-74.4.6-148.88 1.3c-28.64.29-58.38.79-85 17.46s-49.29 54.38-45 91.2c5.78 49 50.19 65 86.71 75.84s79.33 40.31 72.94 90.51c-6.18 48.49-54.88 73.34-66.25 120.74-8 33.23 6.18 68.15 27.44 85.21s48.09 19.76 73.94 18.76c27.24-1.09 55.68-5.58 80.33 6.89s43.6 49.79 32.13 83.52c-9.68 28.44-38.12 50.49-33.23 79.43 3.39 20.16 21.35 27.14 36.82 31.13q74.54 19.17 149.18 38.32c13.07 3.39 27.24 7.69 34.53 22 10.37 20.46 1.29 49.4.3 75-2.7 68.16 51.19 107 97.79 131.52 32.73 17.17 68.25 34.73 104.07 22.65 34.93-11.67 62.57-48.79 93.7-74.44 74.64-61.27 168.14-53.38 245.68-16.26s144.89 100.08 219 146.48c87.51 54.69 184.5 85.82 284 91.31 28.84 1.59 66.06-6.19 76.14-43.21 11.17-41-22.66-76.14-21.86-118.55 1.1-54.78 53.89-82.62 95.5-89.9s93.5-20.46 107.17-73.64c12.07-46.8-17-90.61-48.5-111.87-33.93-22.85-72.84-32.63-107.17-54.78s-65.26-62.32-65.16-114.32c0-82.13 75.54-153.27 64.36-232.9-6.58-47.2-41.61-74.44-74.94-92.21a474.88 474.88 0 0 0 -136.6-48.19c-33.73-6.29-70.45-10.18-94.4-40.22-17-21.25-24.45-52.28-32.63-81.72-13.07-47.4-29.74-94.7-59-126.13s-73.84-43.41-109.06-16.37c-40.51 31-60.07 104.18-104.38 121.54" fill="#f9f9f7"/></g></svg>