<?xml version="1.0" encoding="utf-8"?>
<!-- Generator: Adobe Illustrator 24.1.0, SVG Export Plug-In . SVG Version: 6.00 Build 0)  -->
<svg version="1.1" id="Layer_1" xmlns="http://www.w3.org/2000/svg" xmlns:xlink="http://www.w3.org/1999/xlink" x="0px" y="0px"
	 viewBox="0 0 1433 1569" style="enable-background:new 0 0 1433 1569;" xml:space="preserve">
<style type="text/css">
	.st0{clip-path:url(#SVGID_2_);}
	.st1{fill:none;}
	.st2{fill:#B2B2A7;}
	.st3{fill:#C9F8DB;}
	.st4{fill:#FACE00;}
	.st5{fill:none;stroke:#F9F9F7;stroke-width:3;stroke-miterlimit:10;}
	.st6{fill:none;stroke:#294040;stroke-width:0.43;stroke-miterlimit:10;}
	.st7{fill:none;stroke:#294040;stroke-width:1.71;stroke-linecap:square;stroke-miterlimit:10;}
	.st8{fill:none;stroke:#294040;stroke-width:6;stroke-linecap:square;stroke-miterlimit:10;}
	.st9{fill:none;stroke:#294040;stroke-width:5.14;stroke-linecap:square;stroke-miterlimit:10;}
	.st10{fill:none;stroke:#294040;stroke-width:4.28;stroke-linecap:square;stroke-miterlimit:10;}
	.st11{fill:none;stroke:#294040;stroke-width:2.57;stroke-linecap:square;stroke-miterlimit:10;}
	.st12{fill:none;stroke:#F9F9F7;stroke-width:3;stroke-linecap:round;stroke-miterlimit:10;stroke-dasharray:0,7;}
	.st13{fill:none;stroke:#294040;stroke-width:3;stroke-linecap:round;stroke-miterlimit:10;stroke-dasharray:0,7;}
	.st14{opacity:0.4;fill:none;stroke:#16605D;stroke-width:2;stroke-linecap:round;stroke-miterlimit:10;enable-background:new    ;}
	.st15{fill:none;stroke:#585850;stroke-width:3;stroke-linecap:round;stroke-miterlimit:10;stroke-dasharray:0,7;}
	.st16{opacity:0.4;fill:none;stroke:#16605D;stroke-width:2;stroke-linecap:round;enable-background:new    ;}
	.st17{fill:none;stroke:#294040;stroke-width:0.33;stroke-miterlimit:10;}
	.st18{fill:none;stroke:#294040;stroke-width:1.32;stroke-linecap:square;stroke-miterlimit:10;}
	.st19{fill:none;stroke:#294040;stroke-width:4.61;stroke-linecap:square;stroke-miterlimit:10;}
	.st20{fill:none;stroke:#294040;stroke-width:3.95;stroke-linecap:square;stroke-miterlimit:10;}
	.st21{fill:none;stroke:#294040;stroke-width:3.29;stroke-linecap:square;stroke-miterlimit:10;}
	.st22{fill:none;stroke:#294040;stroke-width:1.97;stroke-linecap:square;stroke-miterlimit:10;}
	.st23{fill:#DAFAE6;}
	.st24{fill:#294040;}
	.st25{fill:none;stroke:#294040;stroke-width:3.03;stroke-linecap:square;stroke-miterlimit:10;stroke-dasharray:5.91,8.45;}
	.st26{fill:none;stroke:#294040;stroke-width:2.44;stroke-linecap:square;stroke-miterlimit:10;stroke-dasharray:8.92,7.93;}
	.st27{fill:none;stroke:#294040;stroke-width:1.5;stroke-linecap:square;stroke-miterlimit:10;stroke-dasharray:12.01,8.01;}
	.st28{fill:none;stroke:#294040;stroke-width:4.43;stroke-linecap:square;stroke-miterlimit:10;stroke-dasharray:8.65,12.36;}
	.st29{fill:none;stroke:#294040;stroke-width:3.57;stroke-linecap:square;stroke-miterlimit:10;stroke-dasharray:13.05,11.6;}
	.st30{fill:none;stroke:#294040;stroke-width:2.2;stroke-linecap:square;stroke-miterlimit:10;stroke-dasharray:17.57,11.71;}
	.st31{fill:#FDDB39;}
	.st32{fill:none;stroke:#294040;stroke-linecap:square;stroke-miterlimit:10;stroke-dasharray:14,8.02;}
	.st33{fill:none;stroke:#294040;stroke-width:3;stroke-linecap:square;stroke-miterlimit:10;stroke-dasharray:6.15,8.2;}
	.st34{fill:none;stroke:#294040;stroke-width:2.5;stroke-linecap:square;stroke-miterlimit:10;stroke-dasharray:8.92,7.93;}
	.st35{fill:none;stroke:#294040;stroke-width:1.19;stroke-linecap:square;stroke-miterlimit:10;stroke-dasharray:16.66,9.55;}
	.st36{fill:none;stroke:#294040;stroke-width:3.57;stroke-linecap:square;stroke-miterlimit:10;stroke-dasharray:7.32,9.76;}
	.st37{fill:none;stroke:#294040;stroke-width:2.97;stroke-linecap:square;stroke-miterlimit:10;stroke-dasharray:10.61,9.43;}
	.st38{fill:none;stroke:#294040;stroke-width:1.78;stroke-linecap:square;stroke-miterlimit:10;stroke-dasharray:14.29,9.52;}
	.st39{fill:#B9B9AF;}
	.st40{fill:none;stroke:#294040;stroke-width:4.21;stroke-linecap:square;stroke-miterlimit:10;stroke-dasharray:8.23,11.76;}
	.st41{fill:none;stroke:#294040;stroke-width:3.39;stroke-linecap:square;stroke-miterlimit:10;stroke-dasharray:12.42,11.04;}
	.st42{fill:none;stroke:#294040;stroke-width:2.09;stroke-linecap:square;stroke-miterlimit:10;stroke-dasharray:16.72,11.14;}
</style>
<g>
	<defs>
		<rect id="SVGID_1_" width="1433" height="1569"/>
	</defs>
	<clipPath id="SVGID_2_">
		<use xlink:href="#SVGID_1_"  style="overflow:visible;"/>
	</clipPath>
	<g class="st0">
		<path class="st1" d="M-15.4,496h1517v640h-1517L-15.4,496z"/>
		<path class="st1" d="M-15.4,496h1432v640h-1432L-15.4,496z"/>
		<path class="st2" d="M1113.9-651.6c27.6-37.7,78.5-46.2,113.5-18.9c49.5,38.6,58.3,128,108,166.2c47.6,36.6,109.4,10.7,162.7-11.4
			c53.3-22.2,121-35.7,158.6,15.3c31.4,42.8,24.1,108.7,40.2,162.5c14.2,47.6,48.3,85.7,88.6,98.9c44.5,14.6,91.4-0.2,137.3-5.3
			s99,4.1,125,50.2c20.9,37.1,17.7,86.5,30.6,128.7c22.6,73.8,88.5,111.2,147.8,143.3c28.9,15.6,59.5,33.8,74.3,67.7
			c28.7,65.3-16.3,140.9-58.4,194.5c-25.3,32.3-51.8,65.5-86.3,80.7c-66.1,29.1-137.4-15.9-207.5-22
			c-93.1-8.2-179.6,52.2-262.1,105.3s-177.2,101.8-266.7,69.4c-58.4-21.2-104.6-73.8-152.9-119s-106.4-85.5-166.8-75.2
			c-51.4,8.8-101.3,53.6-150.8,34.2c-40-15.7-61.1-66.7-84.5-109.1c-42.2-76.3-103-134.9-174.1-168c-58.8-27.1-131.3-43.8-157.7-113
			c-16.3-42.8-8.8-93.6-19.5-138.9C484.7-234.7,344.8-274,317.7-393.6c-12.3-54.4,3.4-114.3,33.4-157.4s72.5-71,116.6-88.8
			c139.9-56.6,293-18.5,434.6,31.2c38.3,13.4,77.5,27.8,117.2,24.1s61.6-37.6,94.1-66.2"/>
		<path class="st3" d="M534.7,608.1c10.1-122.5,40.7-225.9,73.9-342.6c18-63.3,40-126.5,76.8-177.3s90.5-88,147-85.7
			c67.1,2.7,124,58.6,168.1,118.3s82.9,127.8,139.7,170c64.4,48,145.2,56.9,220.7,45.1s147.9-42.3,220.8-68.3
			c107.6-38.2,218.8-66.9,331-62.8s226,43.3,312.1,128.3c45.5,45,83.8,105.9,89,175.7c7,92.9-45.7,178.6-108,235.8
			c-37.3,34.3-83.1,70-86.7,125.6c-1.8,28.6,8.4,56,14.5,83.7c19.9,90.5-6.6,191.3-62.1,257.9s-137.2,99.2-216.2,93.9
			c-70-4.7-140.1-37-208.6-19c-59,15.5-106.1,65.7-153.5,110.1c-97.6,91.4-206.6,164.7-323.3,217c-29.4,13.1-60.2,25.1-91.5,22.7
			c-97-7.6-163.5-146.9-260.5-139.9c-69.5,5-117.8,83.5-182.2,114.8c-102.1,49.8-214.5-26.9-304.5-102.5
			c-31.5-26.4-65.7-58.5-69.7-103.9C253,1308.3,378,1272.5,406.4,1181c23.5-75.7-26.9-152.3-67.7-217s-72-164.4-21.3-218.3
			c34.6-36.8,87.4-28.4,133.6-34.5s76.4-48.6,83.3-102.8"/>
		<path class="st2" d="M314.9,700.4c27.6-37.7,78.5-46.2,113.5-18.9c49.5,38.6,58.3,128,108,166.2c47.6,36.6,109.4,10.7,162.7-11.4
			s121-35.7,158.6,15.3c31.4,42.8,24.1,108.7,40.2,162.5c14.2,47.6,48.3,85.7,88.6,98.9c44.5,14.6,91.4-0.2,137.3-5.3
			s99,4.1,125,50.2c20.9,37.1,17.7,86.5,30.6,128.7c22.6,73.8,88.5,111.2,147.8,143.3c28.9,15.6,59.5,33.8,74.3,67.7
			c28.7,65.3-16.3,140.9-58.4,194.5c-25.3,32.3-51.8,65.6-86.3,80.7c-66.1,29.1-137.4-15.9-207.5-22
			c-93.1-8.2-179.6,52.2-262.1,105.3s-177.2,101.8-266.7,69.4c-58.4-21.2-104.6-73.8-152.9-119s-106.4-85.5-166.8-75.2
			c-51.4,8.8-101.4,53.6-150.8,34.2c-40-15.7-61.1-66.7-84.5-109.1c-42.2-76.3-103-135-174.1-168c-58.8-27.1-131.3-43.8-157.7-113
			c-16.3-42.8-8.8-93.6-19.5-138.9c-28.5-119.2-168.3-158.5-195.4-278.2c-12.3-54.3,3.4-114.3,33.4-157.4s72.5-71,116.6-88.8
			c139.9-56.6,293-18.5,434.6,31.2c38.3,13.4,77.5,27.8,117.2,24.1s61.6-37.6,94.1-66.2"/>
		<path class="st4" d="M-100.1,3.5c-13.7,21.3-24.6,45.4-19.3,69.1c6.7,30.2,38.3,53.7,45.7,83.8c7.9,32-12.8,63.7-34,91.5
			C-181.8,345.3-270,435.3-370.5,516c-31.5,25.3-67.2,60.3-48.2,92.9c15.4,26.5,59.1,33.8,80.6,57.4c34.7,38.1-5,93,9.5,138.9
			c12.7,40.5,66.7,65.1,118.2,67.5s101.6-12.3,150.5-25.7s100.5-25.8,151.4-18.8c102,14,169.5,100.8,270.8,117.9
			c35.3,6,72,2.8,107.3-3.3c73.1-12.8,143.8-39.7,195.7-83.2s83.2-105,74.5-165.1c-9.4-64.4-62.2-126.5-42.2-189.2
			c10.1-31.6,37.4-57.3,57.9-85.3c33.3-45.4,47.5-107.7,6-148.6c-28.2-27.8-69.4-67.8-79.2-92.8c-11.1-28.5,19.2-112.5-4.8-145.4
			c-5-6.8-126-36.9-136.5-46.5c-52.8-48.4-17.2-107.9-83.3-143.9c-47.7-26-110.1-23.2-167.5-19.4c-103.9,6.9-167.3,5.2-248.7,59.5"
			/>
		<circle class="st2" cx="498.1" cy="806.8" r="10.4"/>
		<g>
			<path class="st5" d="M285.3,686.6L115.6,856.6"/>
			<path class="st5" d="M88.3,883.7l-169.8,169.9"/>
			<path class="st5" d="M109.9,862.1l-15,15.2"/>
			<circle class="st6" cx="259.2" cy="1220.7" r="239.8"/>
			<circle class="st7" cx="259.2" cy="1220.7" r="193.6"/>
			<path class="st8" d="M259,1201.8c10.4-0.1,18.9,8.3,19,18.7c0.1,10.4-8.3,18.9-18.7,19c-10.4,0.1-18.9-8.3-19-18.7c0,0,0,0,0,0
				C240.3,1210.5,248.6,1201.9,259,1201.8z"/>
			<circle class="st9" cx="259.2" cy="1220.7" r="54.8"/>
			<circle class="st10" cx="259.2" cy="1220.7" r="101.1"/>
			<circle class="st11" cx="259.2" cy="1220.7" r="147.3"/>
			<circle class="st6" cx="1396.2" cy="1397.7" r="239.8"/>
			<circle class="st7" cx="1396.2" cy="1397.7" r="193.6"/>
			<path class="st8" d="M1396,1378.8c10.4-0.1,18.9,8.3,19,18.7c0.1,10.4-8.3,18.9-18.7,19c-10.4,0.1-18.9-8.3-19-18.7c0,0,0,0,0,0
				C1377.3,1387.5,1385.6,1378.9,1396,1378.8z"/>
			<circle class="st9" cx="1396.2" cy="1397.7" r="54.8"/>
			<circle class="st10" cx="1396.2" cy="1397.7" r="101.1"/>
			<circle class="st11" cx="1396.2" cy="1397.7" r="147.3"/>
			<circle class="st6" cx="2024.2" cy="334.7" r="239.8"/>
			<circle class="st7" cx="2024.2" cy="334.7" r="193.6"/>
			<path class="st8" d="M2024,315.9c10.4-0.1,18.9,8.3,19,18.7c0.1,10.4-8.3,18.9-18.7,19c-10.4,0.1-18.9-8.3-19-18.7c0,0,0,0,0,0
				C2005.3,324.5,2013.6,315.9,2024,315.9z"/>
			<circle class="st9" cx="2024.2" cy="334.7" r="54.8"/>
			<circle class="st10" cx="2024.2" cy="334.7" r="101.1"/>
			<circle class="st11" cx="2024.2" cy="334.7" r="147.3"/>
			<path class="st12" d="M488,817.9L57.8,1255.1"/>
			<path class="st13" d="M866.8,671.2l-135,135"/>
			<path class="st14" d="M1012,865.6l-194.3,194.3"/>
			<path class="st12" d="M992.8,260L562.6,697.3"/>
			<path class="st15" d="M1490.3,49.5L884.8,655"/>
			<path class="st15" d="M642.3-137.5L36.8,468"/>
			<path class="st5" d="M670.9,301.1L310.8,661.2"/>
		</g>
		<circle class="st2" cx="926" cy="952.4" r="11"/>
		<circle class="st4" cx="281.1" cy="1029" r="10.4"/>
		<circle class="st4" cx="823.1" cy="715" r="10.4"/>
		<path class="st13" d="M515.8,1841.2l-135,135"/>
		<path class="st15" d="M1139.3,1219.5L533.8,1825"/>
		<circle class="st4" cx="472.1" cy="1885" r="10.4"/>
		<path class="st16" d="M1350,769.3l-81.8,81.7l-36,36l-131.5,131.2"/>
		<path class="st14" d="M1419.3,701.8l-59.5,59.3"/>
		<path class="st16" d="M1339,1454.3l-81.8,81.7l-36,36l-131.5,131.2"/>
		<path class="st14" d="M1408.3,1386.8l-59.5,59.4"/>
		<circle class="st17" cx="707.7" cy="412.2" r="184.3"/>
		<circle class="st18" cx="707.7" cy="412.2" r="148.8"/>
		<path class="st19" d="M707.6,397.7c8-0.1,14.5,6.4,14.6,14.4s-6.4,14.5-14.4,14.6c-8,0.1-14.5-6.3-14.6-14.3
			C693.1,404.3,699.5,397.8,707.6,397.7C707.5,397.7,707.5,397.7,707.6,397.7z"/>
		<circle class="st20" cx="707.7" cy="412.2" r="42.1"/>
		<circle class="st21" cx="707.7" cy="412.2" r="77.7"/>
		<circle class="st22" cx="707.7" cy="412.2" r="113.2"/>
		<circle class="st17" cx="-226.3" cy="790.2" r="184.3"/>
		<circle class="st18" cx="-226.3" cy="790.2" r="148.8"/>
		<path class="st19" d="M-226.4,775.7c8-0.1,14.5,6.3,14.6,14.3c0,0,0,0,0,0c0.1,8-6.3,14.5-14.3,14.6c0,0,0,0,0,0
			c-8,0.1-14.5-6.3-14.6-14.3c0,0,0,0,0,0C-240.9,782.3-234.4,775.8-226.4,775.7L-226.4,775.7z"/>
		<circle class="st20" cx="-226.3" cy="790.2" r="42.1"/>
		
			<ellipse transform="matrix(3.327795e-02 -0.9994 0.9994 3.327795e-02 -1008.5312 537.7095)" class="st21" cx="-226.3" cy="790.2" rx="77.7" ry="77.7"/>
		<circle class="st22" cx="-226.3" cy="790.2" r="113.2"/>
		<circle class="st23" cx="1263.4" cy="854.9" r="113"/>
		<path class="st24" d="M1263.3,843.9c6.1-0.1,11,4.8,11.1,10.9s-4.8,11-10.9,11.1c-6.1,0.1-11-4.8-11.1-10.9
			C1252.3,848.9,1257.2,843.9,1263.3,843.9C1263.3,843.9,1263.3,843.9,1263.3,843.9z"/>
		<circle class="st25" cx="1263.4" cy="854.9" r="32"/>
		<circle class="st26" cx="1263.4" cy="854.9" r="59"/>
		<circle class="st27" cx="1263.4" cy="854.9" r="86"/>
		<circle class="st23" cx="1252.4" cy="287.9" r="113"/>
		<path class="st24" d="M1252.3,276.9c6.1-0.1,11,4.8,11.1,10.9c0.1,6.1-4.8,11-10.9,11.1c-6.1,0.1-11-4.8-11.1-10.9
			C1241.3,281.9,1246.2,276.9,1252.3,276.9C1252.3,276.9,1252.3,276.9,1252.3,276.9z"/>
		<circle class="st25" cx="1252.4" cy="287.9" r="32"/>
		<circle class="st26" cx="1252.4" cy="287.9" r="59"/>
		<circle class="st27" cx="1252.4" cy="287.9" r="86"/>
		<circle class="st23" cx="1835.7" cy="790.2" r="165.3"/>
		<path class="st24" d="M1835.5,774.1c8.9-0.1,16.2,7.1,16.2,15.9s-7.1,16.2-15.9,16.2c-8.9,0.1-16.2-7.1-16.2-15.9
			C1819.5,781.5,1826.6,774.2,1835.5,774.1C1835.5,774.1,1835.5,774.1,1835.5,774.1z"/>
		<circle class="st28" cx="1835.7" cy="790.2" r="46.8"/>
		<circle class="st29" cx="1835.7" cy="790.2" r="86.3"/>
		
			<ellipse transform="matrix(0.7071 -0.7071 0.7071 0.7071 -21.0882 1529.4684)" class="st30" cx="1835.7" cy="790.2" rx="125.8" ry="125.8"/>
		<circle class="st31" cx="294.4" cy="676.9" r="140"/>
		<circle class="st32" cx="294.4" cy="676.9" r="113"/>
		<path class="st24" d="M294.3,665.9c6.1-0.1,11,4.8,11.1,10.9s-4.8,11-10.9,11.1c-6.1,0.1-11-4.8-11.1-10.9
			C283.3,670.9,288.2,666,294.3,665.9C294.3,665.9,294.3,665.9,294.3,665.9L294.3,665.9z"/>
		<circle class="st33" cx="294.4" cy="676.9" r="32"/>
		<circle class="st34" cx="294.4" cy="676.9" r="59"/>
		<circle class="st27" cx="294.4" cy="676.9" r="86"/>
		<circle class="st31" cx="94.8" cy="51.4" r="166.6"/>
		<circle class="st35" cx="94.8" cy="51.4" r="134.4"/>
		<path class="st24" d="M94.7,38.3c7.2,0,13.1,5.8,13.2,13s-5.8,13.1-13,13.2c-7.2,0-13.1-5.8-13.2-13
			C81.6,44.3,87.5,38.4,94.7,38.3C94.7,38.4,94.7,38.4,94.7,38.3z"/>
		<circle class="st36" cx="94.8" cy="51.4" r="38.1"/>
		<circle class="st37" cx="94.8" cy="51.4" r="70.2"/>
		<circle class="st38" cx="94.8" cy="51.4" r="102.3"/>
		<circle class="st39" cx="728.4" cy="967.9" r="113"/>
		<path class="st24" d="M728.3,956.9c6.1-0.1,11,4.8,11.1,10.9c0.1,6.1-4.8,11-10.9,11.1c-6.1,0.1-11-4.8-11.1-10.9
			C717.3,961.9,722.2,957,728.3,956.9C728.3,956.9,728.3,956.9,728.3,956.9L728.3,956.9z"/>
		<circle class="st25" cx="728.4" cy="967.9" r="32"/>
		<circle class="st26" cx="728.4" cy="967.9" r="59"/>
		<circle class="st27" cx="728.4" cy="967.9" r="86"/>
		<circle class="st39" cx="760.7" cy="1597.2" r="157.3"/>
		<path class="st24" d="M760.5,1581.9c8.5-0.1,15.4,6.7,15.4,15.2c0.1,8.5-6.7,15.4-15.2,15.4c-8.5,0.1-15.4-6.7-15.4-15.2
			C745.3,1588.9,752.1,1582,760.5,1581.9C760.5,1581.9,760.5,1581.9,760.5,1581.9z"/>
		
			<ellipse transform="matrix(0.1602 -0.9871 0.9871 0.1602 -937.8021 2092.2339)" class="st40" cx="760.7" cy="1597.3" rx="44.5" ry="44.6"/>
		<circle class="st41" cx="760.7" cy="1597.3" r="82.1"/>
		
			<ellipse transform="matrix(0.7071 -0.7071 0.7071 0.7071 -906.5855 1005.6986)" class="st42" cx="760.7" cy="1597.2" rx="119.7" ry="119.7"/>
	</g>
</g>
</svg>
